<svg id="Layer_1" data-name="Layer 1" xmlns="http://www.w3.org/2000/svg" xmlns:xlink="http://www.w3.org/1999/xlink" viewBox="0 0 150 150"><defs><style>.cls-1{fill:url(#linear-gradient);}.cls-2{fill:url(#linear-gradient-2);}</style><linearGradient id="linear-gradient" x1="48.12" y1="4.96" x2="101.88" y2="145.04" gradientUnits="userSpaceOnUse"><stop offset="0" stop-color="#f171ab"/><stop offset="1" stop-color="#f35f5f"/></linearGradient><linearGradient id="linear-gradient-2" x1="58.66" y1="29.99" x2="86.25" y2="101.85" xlink:href="#linear-gradient"/></defs><title>Artboard 1</title><path class="cls-1" d="M75,10A65,65,0,1,1,10,75,65.08,65.08,0,0,1,75,10M75,0a75,75,0,1,0,75,75A75,75,0,0,0,75,0Z"/><path class="cls-2" d="M51.2,111.9v-79h8.87V67.47a18.18,18.18,0,0,0,3.78,11.58,12,12,0,0,0,10,5.2,15.09,15.09,0,0,0,11.35-4.94,16.87,16.87,0,0,0,4.57-11.84V32.86h8.86V91.29H89.81v-8a17,17,0,0,1-7.57,6.78,24.52,24.52,0,0,1-10.3,2.09A16.91,16.91,0,0,1,65.67,91a16.87,16.87,0,0,1-5.6-3.2V111.9Z"/></svg>